<svg id="레이어_1" data-name="레이어 1" xmlns="http://www.w3.org/2000/svg" viewBox="0 0 328.4 89.8"><defs><style>.cls-1{fill:#fff;}.cls-2{fill:#003668;}.cls-3{fill:#e6002d;}.cls-4{fill:#595757;}</style></defs><path class="cls-1" d="M926,499.7a44.9,44.9,0,1,1-44.9-44.9A44.91,44.91,0,0,1,926,499.7" transform="translate(-836.17 -454.8)"/><path class="cls-2" d="M902.17,496.57c-7.14-4.86-16.28-2.88-21.08,4.42a14.83,14.83,0,0,1-26.81-4.08h0a.83.83,0,0,0,0-.15,1.33,1.33,0,0,0-.05-.19,19,19,0,0,1-.76-5.89c0-13.3,13.64-28.1,33.28-28.1,20.12,0,31.63,15.32,34.6,23.83l-.15-.46a42.37,42.37,0,0,0-82.44,13.75c0,20.91,15.08,38.81,36,38.81,16.69,0,27.9-9.36,33-22.25,2.82-7.05.82-15.34-5.59-19.69" transform="translate(-836.17 -454.8)"/><path class="cls-3" d="M921.56,487.23c-2.47-8.3-14.07-24.65-34.86-24.65-19.64,0-33.28,14.8-33.28,28.1a19,19,0,0,0,.76,5.89,12.71,12.71,0,0,1-.39-3c0-13.85,13.86-23.44,28.11-23.44A34.93,34.93,0,0,1,916.83,505a38.5,38.5,0,0,1-21.35,34.5h0a42.44,42.44,0,0,0,26.07-52.31" transform="translate(-836.17 -454.8)"/><path class="cls-4" d="M948.76,485.73v-4.64h20.82v4.64H961l9.53,28.49-4.5,1.37-6.65-20.43-6.69,20.77L948,514.52l9.63-28.79Zm33.53-7.28h5.08V521h-5.08V501H977.4v19.74h-4.94V478.5h4.94v17.64h4.89Z" transform="translate(-836.17 -454.8)"/><path class="cls-4" d="M993.62,484.22v-4.55h24.44v4.55h-10.41l10.85,13.24-3.71,3-8.7-10.85-8.65,11.58-3.87-3.12,10.81-13.88ZM1027.44,512a9.37,9.37,0,0,1-.88,4,11.19,11.19,0,0,1-2.34,3.3,11.46,11.46,0,0,1-3.55,2.24,11,11,0,0,1-4.27.83,11.2,11.2,0,0,1-4.3-.83,11.44,11.44,0,0,1-3.57-2.24,11.22,11.22,0,0,1-2.35-3.3,9.52,9.52,0,0,1-.88-4,9.65,9.65,0,0,1,.88-4.06,10.93,10.93,0,0,1,2.35-3.32,11.63,11.63,0,0,1,7.87-3.08,11,11,0,0,1,4.27.83,11.31,11.31,0,0,1,3.55,2.25,10.9,10.9,0,0,1,2.34,3.32A9.5,9.5,0,0,1,1027.44,512Zm-5.18-.05a5.56,5.56,0,0,0-1.76-4.13,5.69,5.69,0,0,0-4.15-1.74,5.94,5.94,0,0,0-5.87,5.87,5.55,5.55,0,0,0,1.74,4.1,5.68,5.68,0,0,0,4.13,1.71,5.74,5.74,0,0,0,4.15-1.71A5.5,5.5,0,0,0,1022.26,511.93Zm3.52-10.9v-9.24h-7.92v-4.54h7.92v-8.8h5.28V501Z" transform="translate(-836.17 -454.8)"/><path class="cls-4" d="M1057.69,499.9h-5.27V484.36h-15.35v-4.69h20.62ZM1072,512a9.38,9.38,0,0,1-.89,4,11,11,0,0,1-2.34,3.3,11.53,11.53,0,0,1-3.54,2.24,11.1,11.1,0,0,1-4.28.83,11.24,11.24,0,0,1-4.3-.83,11.44,11.44,0,0,1-3.57-2.24,11.22,11.22,0,0,1-2.35-3.3,9.51,9.51,0,0,1-.87-4,9.65,9.65,0,0,1,.87-4.06,10.93,10.93,0,0,1,2.35-3.32,11.63,11.63,0,0,1,7.87-3.08,11.1,11.1,0,0,1,4.28.83,11.37,11.37,0,0,1,3.54,2.25,10.73,10.73,0,0,1,2.34,3.32A9.51,9.51,0,0,1,1072,512Zm-5.19-.05a5.59,5.59,0,0,0-1.75-4.13,5.73,5.73,0,0,0-4.16-1.74,5.92,5.92,0,0,0-5.86,5.87,5.54,5.54,0,0,0,1.73,4.1,5.68,5.68,0,0,0,4.13,1.71,5.78,5.78,0,0,0,4.16-1.71A5.52,5.52,0,0,0,1066.83,511.93Zm1.52-33.48h5.28V501h-5.28V495.7h-7v-4.35h7v-3.91h-7v-4.35h7Z" transform="translate(-836.17 -454.8)"/><path class="cls-4" d="M1080.47,485.73v-4.64h20.82v4.64h-8.6l9.53,28.49-4.5,1.37-6.65-20.43-6.69,20.77-4.69-1.41,9.62-28.79Zm24.82-7.23h4.94v42.27h-4.94v-22h-5.52V494h5.52Zm8.7-.05h5.09V521H1114Z" transform="translate(-836.17 -454.8)"/><path class="cls-4" d="M1125.48,505.38h39.09v4.69h-16.91V521h-5.32V510.07h-16.86Zm8.35-20.82h22.39v-5.38h5.23v20.48H1128.6V479.18h5.23Zm22.39,4.59h-22.39V495h22.39Z" transform="translate(-836.17 -454.8)"/></svg>